inDegrees=no
num_controls=7
num_derivatives=13
num_iterations=96
num_multipliers=7
num_parameters=0
num_slacks=7
num_states=26
objective=0.444911
objective_accelerations=0.058216
objective_balance=0.003689
objective_effort=0.023505
objective_height=0.353999
objective_ligament=0.005502
solver_duration=1433.805980
status=Solve_Succeeded
success=true
DataType=double
version=3
OpenSimVersion=4.5
endheader
time	/jointset/ground_pelvis/pelvis_tilt/value	/jointset/ground_pelvis/pelvis_tx/value	/jointset/ground_pelvis/pelvis_ty/value	/jointset/hip_l/hip_flexion_l/value	/jointset/hip_l/hip_adduction_l/value	/jointset/hip_l/hip_rotation_l/value	/jointset/back/lumbar_extension/value	/jointset/patellofemoral_l/patellar_flexion_l/value	/jointset/knee_l/knee_flexion_l/value	/jointset/knee_l/knee_adduction_l/value	/jointset/knee_l/knee_rotation_l/value	/jointset/ankle_l/ankle_angle_l/value	/jointset/subtalar_l/subtalar_angle_l/value	/jointset/ground_pelvis/pelvis_tilt/speed	/jointset/ground_pelvis/pelvis_tx/speed	/jointset/ground_pelvis/pelvis_ty/speed	/jointset/hip_l/hip_flexion_l/speed	/jointset/hip_l/hip_adduction_l/speed	/jointset/hip_l/hip_rotation_l/speed	/jointset/back/lumbar_extension/speed	/jointset/patellofemoral_l/patellar_flexion_l/speed	/jointset/knee_l/knee_flexion_l/speed	/jointset/knee_l/knee_adduction_l/speed	/jointset/knee_l/knee_rotation_l/speed	/jointset/ankle_l/ankle_angle_l/speed	/jointset/subtalar_l/subtalar_angle_l/speed	/forceset/tau_hip_flexion_l	/forceset/tau_hip_adduction_l	/forceset/tau_hip_rotation_l	/forceset/tau_knee_flexion_l	/forceset/tau_ankle_angle_l	/forceset/tau_subtalar_angle_l	/forceset/tau_lumbar_extension	lambda_cid13_p0	lambda_cid13_p1	lambda_cid13_p2	lambda_cid13_p3	lambda_cid13_p4	lambda_cid13_p5	lambda_cid14_p0	/jointset/ground_pelvis/pelvis_tilt/accel	/jointset/ground_pelvis/pelvis_tx/accel	/jointset/ground_pelvis/pelvis_ty/accel	/jointset/hip_l/hip_flexion_l/accel	/jointset/hip_l/hip_adduction_l/accel	/jointset/hip_l/hip_rotation_l/accel	/jointset/back/lumbar_extension/accel	/jointset/patellofemoral_l/patellar_flexion_l/accel	/jointset/knee_l/knee_flexion_l/accel	/jointset/knee_l/knee_adduction_l/accel	/jointset/knee_l/knee_rotation_l/accel	/jointset/ankle_l/ankle_angle_l/accel	/jointset/subtalar_l/subtalar_angle_l/accel	gamma_cid13_p0	gamma_cid13_p1	gamma_cid13_p2	gamma_cid13_p3	gamma_cid13_p4	gamma_cid13_p5	gamma_cid14_p0
0	-0.03980194005965108	0.06903610121162131	0.8959620021289724	0.1955287580552426	-0.3218902195014382	-0.4857208589533374	-0.1379045077516729	0.07015288079084901	0.07015288079084844	-0.17453284108784	-0.1200707155707356	-0.06701059314715049	0.003971219837706274	0	0	0	0	0	0	0	0	0	0	0	0	0	0.1032385048639873	-0.09861393773731782	-0.0291344513070522	-0.2238719462763125	0.174002348425122	-0.01103589062443909	-0.04975408409561049	20.31436226087169	-2.080676353290341	3.784229724893164	4.644971491041275	-514.6309897097877	-83.91233587070812	-39.97429244634834	-4.57873380647801	-1.987784667109898	-0.9973722037095354	12.90336745498135	-2.130633109456859	3.40016618723633	-2.881235783477884	10.28933941213175	10.28933941213395	0.70432958961523	-0.836744298942059	2.166727188978015	-1.159756223948377	-1.933966545233951e-08	1.361935412510779e-07	1.026554833272744e-07	9.422940900852218e-09	5.506047313229057e-09	-1.832080466594406e-08	-1.947029668899818e-09
0.01	-0.04002066843683449	0.06893842068484522	0.8959135751558118	0.196152741508445	-0.3219952005912439	-0.4855501808086172	-0.1380546056304241	0.07065271459389053	0.07065271459388832	-0.174501361927422	-0.1201063130042999	-0.06690650218448446	0.003912582204127426	-0.04356063955546911	-0.01940793929895016	-0.00965384880140974	0.1242034570143929	-0.02090079528179244	0.03399128361513711	-0.0297624169638038	0.09951921101319636	0.09951921101320167	0.006256368326545826	-0.007071769244140034	0.0207729782847007	-0.01164825143264646	0.1003697672642814	-0.09952648238424952	-0.02879006854128533	-0.2219937344445017	0.1716677380728996	-0.008267635203117591	-0.04704912306177434	19.64802854054875	-3.110430787077443	3.884630519698474	4.044415698507649	-515.5377168255123	-85.82514672339987	-39.98443143670884	-4.216985340986493	-1.898071768266704	-0.9446582425432676	12.08983803666876	-2.05552033376618	3.376947883784624	-2.985170834868196	9.716079896088464	9.716079896087752	0.5804051682602507	-0.6352276843810626	2.025803694031918	-1.155501700581856	-6.401024712022828e-08	1.566007928612655e-07	1.94452428899491e-07	4.627609135096831e-08	-2.307813000304643e-07	-7.69962425162979e-08	-1.110168418051509e-08
0.02	-0.04066945447175338	0.06865050612368381	0.8957695562897997	0.1980009601741931	-0.3223063331531129	-0.4850439221407194	-0.1384946129152201	0.07213431409709714	0.07213431409709681	-0.1744084961409041	-0.1202111950197553	-0.06659603732980821	0.003739833636690306	-0.08601153154714267	-0.03804680687707087	-0.01911837857028258	0.2448470425088054	-0.04123029441261417	0.06711610463556297	-0.05798188120906959	0.1963531400333886	0.1963531400333831	0.01227732521653056	-0.01385691637752338	0.04127477840203463	-0.02282218677165619	0.09750102966459162	-0.1004390270311841	-0.02844568577549519	-0.2201155226126892	0.1693331277206777	-0.005499379781799103	-0.04434416202792305	19.04537222064566	-4.152397860511662	3.988193635837987	3.293321398129503	-515.5077139152811	-87.57308886759354	-40.0142519979675	-4.356784293718899	-1.833970322944009	-0.9595083972021567	12.19139315098528	-2.016373879262733	3.226873668294079	-2.57264523977028	9.75228301353094	9.752283013529889	0.6572473023029771	-0.7794198767907233	2.112491555504655	-1.064893005221051	-1.08680828788117e-07	1.770080444714531e-07	2.862493744717077e-07	8.31292418010844e-08	-4.670686473741577e-07	-1.356716803666517e-07	-2.025633869213037e-08
0.03	-0.04173761283308906	0.06817977143099646	0.8955315333809375	0.2010392130486084	-0.3228175698871742	-0.4842108993743896	-0.1392084756703016	0.07457143890078473	0.07457143890078752	-0.1742559040577779	-0.120382880261265	-0.06608198271287617	0.003458023766280846	-0.1274109834265606	-0.05599676328165051	-0.02847592135014982	0.3622377503208575	-0.06088952700841238	0.09935477134325525	-0.08453859516023887	0.2906208908775506	0.2906208908775429	0.01824157212546431	-0.02042243930681074	0.0614606882791805	-0.0334440280553247	0.09301748826239299	-0.09712388965074434	-0.02772763564658418	-0.2160221938411442	0.1649322721325273	-0.005014406998492589	-0.04057113733952191	17.68805655452127	-4.192372223865103	4.071104211914091	3.527397934275029	-515.427371365077	-87.01460568725648	-40.06252776740573	-4.000164330641221	-1.759986267669824	-0.9224293090044453	11.4280223959368	-1.921617648304269	3.202273630455061	-2.659373275736446	9.196385734037447	9.196385734037792	0.566147735451362	-0.5864291106937604	1.96032075118653	-1.046525929287585	-1.367652771195691e-07	2.065388678780742e-07	3.347298909970077e-07	1.127992194301816e-07	-6.350644391338956e-07	-1.641300347696937e-07	-2.236130893886505e-08
0.04	-0.04321349345233636	0.06753264158057229	0.8952002246261515	0.2052343955610691	-0.3235215828869069	-0.483059507849294	-0.140180343325484	0.0779377141357563	0.07793771413575555	-0.1740436426355042	-0.1206184828539954	-0.06536833298769927	0.003072856235165142	-0.1675559831294998	-0.07332583842443435	-0.03777554775503476	0.4762329701177713	-0.07978554754684691	0.1307898563888789	-0.1095828612292551	0.3821832262888582	0.382183226288854	0.02421119304491007	-0.02664038662393959	0.081193800051006	-0.04349371891290622	0.0885339468602047	-0.09380875227030391	-0.02700958551773282	-0.2119288650695808	0.1605314165443822	-0.004529434215181811	-0.03679811265111708	16.38881107475198	-4.242283769161166	4.155336450737222	3.620026835572629	-514.4966893191456	-86.30065711365553	-40.12771688542293	-4.105893858423164	-1.709794070584857	-0.9479251222056977	11.51229554795761	-1.86373146779	3.066157335880346	-2.270155663339678	9.211199926960079	9.211199926960129	0.6583221044053706	-0.7099047543590209	2.021931934440576	-0.950462920003659	-1.645077433203731e-07	2.36257806167096e-07	3.823172852739176e-07	1.423210904031753e-07	-8.016521575826244e-07	-1.919653565243375e-07	-2.432092487085992e-08
0.05	-0.04508540079220259	0.06671531758644031	0.8947759020113641	0.2105540246076058	-0.3244108501647447	-0.4815980826622869	-0.1413943817075304	0.0822070125734768	0.08220701257347623	-0.1737717536937851	-0.1209151501993451	-0.0644593345384936	0.002590076368975837	-0.2066210874010449	-0.09003238687277779	-0.04709860138447362	0.5871293652849056	-0.09794718579507285	0.1613551436029312	-0.1329837186716269	0.4712235121362969	0.4712235121363111	0.03012578344375937	-0.03264029177880536	0.10052325852101	-0.05297905783064169	0.08385992216869523	-0.09056135334144075	-0.02630527511634101	-0.2085469664758167	0.1568074474166113	-0.004069893741926219	-0.03295557251961824	15.30003930724751	-4.308402735033908	4.231186816391321	3.657154203563873	-513.6071224140323	-85.56432477918641	-40.2078834482914	-3.776171350677912	-1.635070499822683	-0.9261010872150354	10.79376510730606	-1.774333130102152	3.030658323054497	-2.338886308416526	8.682505425860683	8.682505425863111	0.5519882061998703	-0.5370671508193374	1.876054751535521	-0.9351697551674056	-1.832952053814476e-07	2.341144554331863e-07	4.224584079430382e-07	1.590347443040842e-07	-9.081062442982312e-07	-2.185260588815113e-07	-2.844280346989354e-08
0.06	-0.04734182970261561	0.06573413105425216	0.894258027739502	0.2169657083270564	-0.3254781244504176	-0.4798352158213618	-0.1428351957687468	0.08735312637211413	0.08735312637211666	-0.1734419267083632	-0.1212702233472017	-0.06335952111493681	0.0020149230381074	-0.2444602972388986	-0.1060983460356702	-0.05648587916999784	0.6946439047006279	-0.1153869491138294	0.1910781871724562	-0.1549379970632219	0.5575462984727324	0.5575462984727529	0.03579880178561544	-0.03832154712443019	0.1193567949212228	-0.0619684118487335	0.07918589747717995	-0.0873139544125766	-0.0256009647149265	-0.205165067882059	0.1530834782888397	-0.003610353268670288	-0.02911303238812371	14.26320868565941	-4.382687434655975	4.307278566153804	3.566325577887259	-511.9573116940134	-84.68602184989408	-40.30088727811754	-3.860714971684882	-1.581676213494665	-0.9607699534227711	10.83592439767525	-1.719356481896125	2.897708606974883	-1.980839853184324	8.667700024759428	8.667700024757087	0.6100076930067249	-0.6461747925108342	1.922747520482332	-0.8512659400749316	-2.017056146366387e-07	2.306295346351531e-07	4.622860033865675e-07	1.752091048545895e-07	-1.012028388625075e-06	-2.450330930535284e-07	-3.265572470753932e-08
0.07000000000000001	-0.04997125681294361	0.06459542391623672	0.8936457164059839	0.2244372545372085	-0.3267161344024714	-0.4777795471133472	-0.1444876973944215	0.09335002257696678	0.09335002257697279	-0.1730561360466173	-0.1216811451888146	-0.06207345415466363	0.001352621851652592	-0.2812083136794489	-0.121538416293187	-0.06599898232142933	0.7991063175830425	-0.132080944337836	0.2199229084425181	-0.1753466380331727	0.6413845872152358	0.6413845872152056	0.0413328333004537	-0.04380409565388772	0.1377729033967176	-0.07039587037122572	0.07415075775824737	-0.08441426488924021	-0.02484855598240887	-0.2020131951112777	0.1490937594722416	-0.00261209505852837	-0.02506878904775294	13.1467492179613	-4.661365305555878	4.398103142434232	3.577574950216755	-510.4755742311819	-84.24119489073342	-40.40431311758896	-3.549334183622413	-1.509437402892933	-0.950173379512795	10.1675194606554	-1.624372133865266	2.857893440655731	-2.038522713110128	8.174646588787002	8.174646588780845	0.5212163259062829	-0.4904244027476198	1.788483253289786	-0.8241801228383728	-2.090052311458827e-07	2.150010983341008e-07	4.779913343843228e-07	1.822540613282001e-07	-1.059613391530401e-06	-2.575750019981663e-07	-3.489926260168404e-08
0.08	-0.05296166192835343	0.06330546308144355	0.8929375554642495	0.2329366488216111	-0.328117074525008	-0.4754394232819052	-0.1463378147286377	0.1001718523272056	0.1001718523272108	-0.1726157819806845	-0.1221451184196337	-0.06060573796119412	0.0006089072170724675	-0.3166558982552913	-0.1363490853912195	-0.0756558008132454	0.9002135195506893	-0.1479729832103358	0.2479692118579362	-0.19446113877151	0.7225330075493873	0.7225330075493179	0.04671148262264871	-0.04893182496672194	0.1556866415604818	-0.07825110147379784	0.06911561803931598	-0.08151457536590348	-0.02409614724991952	-0.1988613223404913	0.1451040406556444	-0.001613836848385263	-0.02102454570738165	12.07572112423194	-4.946758420133019	4.488582869057307	3.476252237617123	-508.3250232108976	-83.67073558758166	-40.51558532173666	-3.600628598743278	-1.455795981597814	-0.9895130214996897	10.16488221472172	-1.558965211594741	2.73802503604614	-1.722011806861652	8.129726343089013	8.129726343088983	0.5789312544780739	-0.5752109491861761	1.822273458136205	-0.7368204560909162	-2.155880223166784e-07	1.985892094199506e-07	4.921403902565441e-07	1.887100239903982e-07	-1.103563740150468e-06	-2.692159351216831e-07	-3.701574350592546e-08
0.09	-0.05630100789681018	0.06187049602601308	0.8921318800388705	0.2424321284875983	-0.3296730148910701	-0.4728231321048342	-0.1483716839759859	0.1077928887248562	0.1077928887248603	-0.1721222352874369	-0.1226593329610151	-0.05896102076368068	-0.000210395317662677	-0.3510058478466297	-0.1505397160630783	-0.08551328654809084	0.9983409680185487	-0.163080716630962	0.2751581306201126	-0.2120938412868673	0.8012293510473969	0.8012293510473274	0.05196036753251596	-0.05385302653688309	0.1731682924832293	-0.08551659720780787	0.0637901142056873	-0.07837981406886879	-0.0233224316699254	-0.195996096949555	0.141268744810768	-0.0006707396330227557	-0.01680431981429826	11.03319885694996	-5.212280128125201	4.574859224799368	3.445684765423932	-506.4240704315815	-83.02646176401817	-40.6319640325764	-3.321069395722617	-1.384967318888984	-0.9891881153607168	9.555433010067016	-1.466584055616861	2.689621945766976	-1.751069062175899	7.672857650509952	7.672857650509714	0.4923310498780367	-0.4417972756065293	1.697828826841316	-0.7075783830764864	-2.141347838878685e-07	1.657125810924701e-07	4.919349720934849e-07	1.863022801908143e-07	-1.102155949649636e-06	-2.733263759117716e-07	-3.911314396644586e-08
